<svg width="33" height="33" viewBox="0 0 33 33" fill="none" xmlns="http://www.w3.org/2000/svg">
<g clip-path="url(#clip0_160_1425)">
<path d="M28.7461 4.64062H23.769L24.2436 1.93359H26.0391C26.573 1.93359 27.0059 1.50073 27.0059 0.966797C27.0059 0.432867 26.573 0 26.0391 0H23.4316C22.9621 0 22.5604 0.337348 22.4794 0.799863L21.806 4.64062H4.25391C3.71998 4.64062 3.28711 5.07349 3.28711 5.60742V10.248C3.28711 10.782 3.71998 11.2148 4.25391 11.2148H5.89733C6.15785 13.3522 6.34122 14.8554 6.54837 16.5534C10.716 17.5059 11.4207 20.1094 16.5 20.1094C21.5696 20.1094 22.2939 17.5049 26.4516 16.5527C26.5895 15.4227 26.9647 12.3457 27.1027 11.2148H28.7461C29.28 11.2148 29.7129 10.782 29.7129 10.248V5.60742C29.7129 5.07349 29.28 4.64062 28.7461 4.64062Z" fill="#F5BA3C"/>
<path d="M16.5001 22.0428C11.2279 22.0428 9.87403 19.5969 6.8009 18.6224L7.97936 28.2829C7.97936 28.2829 7.97936 28.283 7.97936 28.2831L8.45052 32.1501C8.50968 32.6351 8.92154 32.9998 9.41022 32.9998H23.5899C24.0786 32.9998 24.4905 32.6351 24.5496 32.1501L24.7077 30.8528C24.7077 30.8528 26.1994 18.6212 26.1994 18.6211C23.1307 19.595 21.7721 22.0428 16.5001 22.0428ZM22.7338 31.0662H10.2664L10.0308 29.1326H22.9696C22.8821 29.8497 22.8138 30.4102 22.7338 31.0662Z" fill="#F5BA3C"/>
</g>
<defs>
<clipPath id="clip0_160_1425">
<rect width="33" height="33" fill="white"/>
</clipPath>
</defs>
</svg>
