<svg width="32" height="33" viewBox="0 0 32 33" fill="none" xmlns="http://www.w3.org/2000/svg">
<path d="M22.8182 0.966797C22.8182 0.432867 22.3854 0 21.8514 0H17.9843C17.4503 0 17.0175 0.432867 17.0175 0.966797V2.64258H22.8182V0.966797Z" fill="#0CD4DC"/>
<path d="M5.77307 27.9268C4.92177 27.4246 4.13609 26.8159 3.43787 26.1177C3.38688 26.0667 3.33713 26.0147 3.28724 25.9629C2.13604 26.5364 1.09577 27.3377 0.234738 28.3358C-0.0782461 28.6986 -0.0782461 29.236 0.234738 29.5989C2.09937 31.7603 4.80459 32.9999 7.65665 32.9999C8.50736 32.9999 9.34467 32.8888 10.1509 32.6767C9.13875 31.6088 8.31226 30.3861 7.69861 29.0628L5.77307 27.9268Z" fill="#0CD4DC"/>
<path d="M6.75578 26.2615C6.55301 25.3311 6.44718 24.3737 6.44718 23.4037C6.44718 21.2086 6.98162 19.0915 7.9566 17.2093C6.39542 16.4298 4.63656 16.0731 2.8552 16.2044C2.37728 16.2396 1.99727 16.6196 1.96208 17.0975C1.75228 19.9444 2.78862 22.7338 4.8053 24.7505C5.39524 25.3404 6.0515 25.846 6.75578 26.2615Z" fill="#0CD4DC"/>
<path d="M25.4665 13.2865C23.9162 12.4346 23.0271 10.9317 23.0271 9.16293V6.50566C23.5235 6.4648 23.9137 6.04978 23.9137 5.54292C23.9137 5.03516 23.522 4.61963 23.0244 4.58006C23.0242 4.57748 16.8111 4.57748 16.8109 4.58006C16.3134 4.61963 15.9216 5.03516 15.9216 5.54292C15.9216 6.04978 16.3119 6.4648 16.8082 6.50566V9.16293C16.8082 10.9316 15.9191 12.4346 14.3689 13.2865C11.8315 14.6808 9.95447 16.9467 9.02783 19.5937H30.8075C29.8809 16.9466 28.0039 14.6807 25.4665 13.2865Z" fill="#0CD4DC"/>
<path d="M31.3006 21.5273H8.53504C8.43378 22.1418 8.38074 22.7688 8.38074 23.4037C8.38074 27.1385 10.2022 30.6593 13.2531 32.8219C13.4166 32.9377 13.6119 33 13.8122 33H26.0234C26.2237 33 26.419 32.9378 26.5824 32.8219C29.6334 30.6593 31.4548 27.1385 31.4548 23.4037C31.455 22.7689 31.4018 22.1418 31.3006 21.5273Z" fill="#0CD4DC"/>
</svg>
