<svg width="27" height="34" viewBox="0 0 27 34" fill="none" xmlns="http://www.w3.org/2000/svg">
<path d="M13.9808 9.70742C14.5698 8.72379 15.5018 7.31602 16.6791 5.96521H16.6805C17.6775 4.81876 19.6301 3.34734 19.6301 3.34734C19.9235 3.12556 19.892 2.81667 19.5584 2.66122L17.1984 1.55832C16.8647 1.4022 16.4111 1.51611 16.19 1.81026C16.19 1.81026 14.4445 4.31422 12.3901 9.64443C6.0379 6.77128 0 10.7956 0 17.7935C0 25.1031 5.62381 36.2064 13.229 32.8548C21.2389 36.321 26.462 25.1037 26.462 17.7935C26.462 10.7353 21.0345 6.59706 13.9808 9.70742Z" fill="#F8644A"/>
<path d="M12.5579 7.34046C12.9251 7.30964 13.2494 6.98467 13.2789 6.61815C13.2789 6.61815 13.5148 3.75974 11.5227 1.76568C9.52458 -0.229046 6.67147 0.0088207 6.67147 0.0088207C6.30427 0.0396428 5.97997 0.364615 5.94981 0.73113C5.94981 0.73113 5.70993 3.59089 7.7047 5.58561C9.69812 7.57833 12.5579 7.34046 12.5579 7.34046Z" fill="#F8644A"/>
</svg>
