<svg width="30" height="33" viewBox="0 0 30 33" fill="none" xmlns="http://www.w3.org/2000/svg">
<path d="M4.52594 15.6184C4.52594 14.6952 4.7997 13.8073 5.30851 13.0556C5.14134 12.5164 5.05495 11.9513 5.05495 11.3914C5.05495 8.97657 6.578 6.87287 8.78601 6.08308C8.98291 4.28264 10.1385 2.73331 11.767 1.99173C10.9301 0.638031 9.60896 -0.155688 8.39108 0.0416208C7.51091 0.184557 6.78164 0.782089 6.35305 1.68399C5.5817 1.32973 4.7795 1.27088 4.07604 1.51807C3.31479 1.78601 2.72352 2.35888 2.36618 3.17446C1.89215 4.25461 1.89159 5.64474 2.34991 6.96648C1.73227 7.39025 1.27059 8.013 1.00076 8.79383C0.546925 10.1049 0.698389 11.6868 1.41588 13.1357C1.49442 13.2938 1.58025 13.4508 1.67393 13.6049C1.0002 14.0427 0.495876 14.6918 0.225485 15.4838C-0.204224 16.7406 -0.0140528 18.2215 0.747194 19.5455C1.09668 20.1537 1.55949 20.7047 2.09859 21.1576C1.91852 21.9109 2.05483 22.7388 2.49352 23.4883C3.10667 24.5337 4.21123 25.2428 5.39153 25.3622C6.97237 28.3308 8.88306 29.8453 11.6156 31.1575C8.3692 27.3229 6.56398 24.1469 6.46244 19.3577C5.26756 18.5051 4.52594 17.1043 4.52594 15.6184Z" fill="#28B446"/>
<path d="M29.5043 11.2398C29.5492 9.05703 28.2662 7.09347 26.2781 6.24482C25.9881 4.38215 24.4858 2.92644 22.6189 2.67981C22.602 2.49427 22.5667 2.30929 22.5134 2.12656C22.1841 1.00324 21.1929 0.157394 20.0479 0.0217443C19.299 -0.067381 18.5911 0.120399 18.006 0.531272C17.4842 0.186542 16.8767 0.000443887 16.254 0.000443887C14.6502 0.000443887 13.3173 1.1843 13.0851 2.72353C11.2512 3.09348 9.87626 4.72632 9.87626 6.63663C9.87626 6.73921 9.88075 6.84179 9.8886 6.94605C7.76249 7.32833 6.17493 9.17418 6.17493 11.3922C6.17493 12.0335 6.31349 12.6691 6.57939 13.2538C5.98195 13.8922 5.64648 14.7325 5.64648 15.6192C5.64648 16.9443 6.40829 18.1461 7.57905 18.7246C7.52744 23.8047 9.37923 26.8888 12.9919 31.0446L13.1956 31.2761L13.2326 31.3182C13.7801 31.9319 14.5683 32.2694 15.4529 32.2694C15.6061 32.2694 15.757 32.2565 15.9057 32.2374L15.7138 31.8652C14.5083 29.0003 13.7683 26.4566 13.3554 24.1954C11.7999 23.7167 11.1272 22.4746 11.0975 22.4174C10.9528 22.1439 11.0588 21.8042 11.3326 21.6601C11.6046 21.5161 11.9429 21.6203 12.0893 21.8922C12.1101 21.9309 12.4366 22.5048 13.1507 22.8961C12.9555 21.4292 12.8988 20.0895 12.9555 18.8821C12.9487 18.821 12.9515 18.761 12.9656 18.6994C13.0632 16.9735 13.3784 15.5127 13.7947 14.2885C11.9048 13.1624 11.6714 11.066 11.8341 10.0486C11.8829 9.74312 12.1712 9.5318 12.4764 9.58337C12.7821 9.63214 12.9902 9.91857 12.9426 10.2235C12.9285 10.3137 12.6767 12.173 14.207 13.219C14.2833 13.0424 14.3602 12.867 14.4398 12.7028C15.9152 9.66016 18.0239 8.14615 18.8401 7.64672C18.8384 6.52396 19.575 5.54863 19.6098 5.50323C19.7977 5.25715 20.1511 5.21119 20.3957 5.39841C20.6414 5.58619 20.6886 5.93764 20.5012 6.18316C20.3761 6.34908 20.1304 6.76219 20.0204 7.21679C21.3124 7.07049 22.5734 7.79918 22.6374 7.8373C22.905 7.99481 22.993 8.33842 22.836 8.60467C22.7311 8.7818 22.5437 8.88046 22.3524 8.88046C22.2554 8.88046 22.1578 8.85579 22.0686 8.8031C21.6776 8.57496 20.4872 8.07104 19.6715 8.46118C19.5296 8.53348 18.5748 9.04694 17.4882 10.1798C19.7136 10.0178 21.2613 10.6781 21.3393 10.7117C21.6226 10.8367 21.7516 11.1674 21.6276 11.4505C21.5351 11.6602 21.3292 11.7857 21.1132 11.7857C21.0386 11.7857 20.9623 11.7711 20.8894 11.7386C20.8473 11.7207 18.9495 10.9348 16.4341 11.4578C15.9303 12.1658 15.4457 13.0144 15.044 14.0256C15.0429 14.0996 15.0277 14.1747 14.9952 14.2465C14.9739 14.2941 14.9453 14.3356 14.9138 14.3737C14.5946 15.2476 14.3372 16.2302 14.1823 17.3401C15.4507 16.5452 17.0506 16.5105 17.142 16.5094H17.1488C17.4551 16.5094 17.7047 16.7549 17.7092 17.062C17.7137 17.3715 17.4657 17.6254 17.1566 17.6304C17.1331 17.631 14.8246 17.6848 14.0393 19.0228C13.9843 20.3899 14.0791 21.9163 14.3708 23.6147C14.3736 23.6276 14.3753 23.6405 14.377 23.6539C14.7697 25.918 15.5079 28.4802 16.7314 31.3888L16.9984 31.9034C17.4102 31.696 17.7647 31.409 18.0177 31.0558C18.4402 30.4661 18.54 29.7509 18.2977 29.0418C17.2834 26.0682 17.3148 23.7991 18.3908 22.2969C19.7854 20.349 22.6901 20.0581 24.2968 20.0581C25.1242 20.0581 25.6925 20.1343 25.6981 20.1355L26.2748 20.2139L26.3326 19.6355C26.3404 19.5592 26.5059 17.7532 25.4513 16.5262C25.3901 16.455 25.3256 16.3877 25.2594 16.3233C25.5573 16.2566 25.8518 16.1618 26.1413 16.0396C28.1406 15.1971 29.4611 13.3126 29.5043 11.2398Z" fill="#28B446"/>
</svg>
