<svg width="32" height="34" viewBox="0 0 32 34" fill="none" xmlns="http://www.w3.org/2000/svg">
<path d="M26.9694 11.4746C24.1002 12.6701 21.1104 13.426 18.0469 13.7336L19.4911 11.2321L24.4159 11.5277C24.9629 11.5605 25.4331 11.1437 25.4659 10.5967C25.4987 10.0497 25.0819 9.57961 24.5349 9.54674L20.6005 9.31058L21.4756 7.79485L26.4005 8.09048C26.9475 8.12329 27.4176 7.70647 27.4504 7.15947C27.4832 6.61246 27.0664 6.14239 26.5194 6.10952L22.5851 5.87336L23.6842 3.96959C24.7802 2.07118 27.2076 1.42078 29.106 2.51678C31.0044 3.61284 31.6548 6.04026 30.5587 7.93867L29.0076 10.6253L26.9694 11.4746Z" fill="#AE80FF"/>
<path d="M14.8843 13.8918C13.5676 13.8918 12.2614 13.8105 10.9691 13.6491C10.9343 13.4041 10.9152 13.1541 10.9152 12.8995C10.9152 9.97676 13.2846 7.60742 16.2073 7.60742C17.1807 7.60742 18.0919 7.87137 18.8755 8.32986L15.6699 13.8821C15.4084 13.8886 15.1466 13.8918 14.8843 13.8918Z" fill="#AE80FF"/>
<path d="M9.63091 9.78615C8.89769 7.84713 8.76341 6.38803 8.76149 6.36567C8.71498 5.81966 8.23453 5.416 7.68871 5.46099C7.1427 5.50742 6.73765 5.98775 6.78409 6.53376C6.7962 6.67625 7.07179 9.67112 8.93189 12.9672C8.93302 13.0882 8.93798 13.2084 8.94499 13.328C6.84846 12.9246 4.7944 12.3062 2.79875 11.4747L1.60438 10.977C1.76129 10.5923 1.98012 10.2338 2.25432 9.91753C0.907281 9.32025 1.71661e-05 7.97897 1.71661e-05 6.44975C1.71661e-05 4.35236 1.70632 2.64605 3.80371 2.64605C4.13606 2.64605 4.46503 2.69064 4.78705 2.77895C5.23681 1.15851 6.71053 0 8.4343 0C10.1132 0 11.5666 1.09447 12.0563 2.66338C12.1733 2.65181 12.2886 2.64605 12.4034 2.64605C14.2171 2.64605 15.7375 3.92251 16.1157 5.62405C13.2555 5.65944 10.7876 7.35318 9.63091 9.78615Z" fill="#AE80FF"/>
<path d="M2.03543 13.3062C6.12775 15.0114 10.4507 15.876 14.8841 15.876C19.3174 15.876 23.6404 15.0114 27.7327 13.3062C28.4288 13.0162 29.1813 13.578 29.1009 14.3279C28.7703 17.4132 27.5738 28.7008 27.3061 31.2086C27.1442 32.7253 25.8716 33.8691 24.3461 33.8691H5.42204C3.89646 33.8691 2.62398 32.7253 2.46204 31.2085C2.19432 28.7008 0.99778 17.4131 0.667223 14.3278C0.586849 13.578 1.33932 13.0162 2.03543 13.3062ZM7.27666 27.254C7.27666 27.802 7.72093 28.2462 8.26893 28.2462H21.4992C22.0472 28.2462 22.4915 27.802 22.4915 27.254V21.9619C22.4915 21.4139 22.0472 20.9696 21.4992 20.9696H8.26893C7.72093 20.9696 7.27666 21.4139 7.27666 21.9619V27.254Z" fill="#AE80FF"/>
<path d="M20.5072 22.9551H9.26149V26.2626H20.5072V22.9551Z" fill="#AE80FF"/>
</svg>
